<?xml version="1.0" encoding="UTF-8"?>
<!DOCTYPE svg PUBLIC "-//W3C//DTD SVG 1.1//EN" "http://www.w3.org/Graphics/SVG/1.1/DTD/svg11.dtd">
<!-- Creator: CorelDRAW 2021 (64-Bit) -->
<svg xmlns="http://www.w3.org/2000/svg" xml:space="preserve" width="223.753mm" height="70.2772mm" version="1.1" style="shape-rendering:geometricPrecision; text-rendering:geometricPrecision; image-rendering:optimizeQuality; fill-rule:evenodd; clip-rule:evenodd"
viewBox="0 0 5566.05 1748.21"
 xmlns:xlink="http://www.w3.org/1999/xlink"
 xmlns:xodm="http://www.corel.com/coreldraw/odm/2003">
 <defs>
  <style type="text/css">
   <![CDATA[
    .str0 {stroke:#006633;strokeWidth:65.82;stroke-miterlimit:22.9256}
    .fil1 {fill:none}
    .fil2 {fill:#E4B453}
    .fil0 {fill:#006633;fill-rule:nonzero}
   ]]>
  </style>
 </defs>
 <g id="Capa_x0020_1">
  <metadata id="CorelCorpID_0Corel-Layer"/>
  <path class="fil0" d="M1196.09 874.63c-37.2,19.38 -85.95,29.07 -146.01,29.07 -78.29,0 -139.93,-24.75 -184.8,-74.39 -44.98,-49.63 -67.35,-115.77 -67.35,-198.41 0,-88.01 25.16,-159.38 75.62,-214.12 50.45,-54.74 115.98,-82.11 196.47,-82.11 49.85,0 91.91,6.81 126.07,20.43l0 119.31c-34.16,-22 -73.07,-33 -116.83,-33 -47.9,0 -86.68,16.24 -116.1,48.72 -29.42,32.48 -44.13,76.48 -44.13,132.01 0,53.17 13.86,95.6 41.7,127.16 27.72,31.56 65.16,47.41 112.21,47.41 44.86,0 85.95,-11.79 123.16,-35.36l0 113.28z"/>
  <polygon id="_1" class="fil0" points="1591.45,894.14 1285.08,894.14 1285.08,343.97 1579.65,343.97 1579.65,444.81 1400.21,444.81 1400.21,567.26 1567.25,567.26 1567.25,667.7 1400.21,667.7 1400.21,793.56 1591.45,793.56 "/>
  <path id="_2" class="fil0" d="M2101.82 894.14l-132.15 0 -79.39 -141.57c-5.96,-10.74 -11.67,-20.3 -17.14,-28.81 -5.47,-8.38 -10.94,-15.58 -16.53,-21.61 -5.59,-6.02 -11.43,-10.61 -17.51,-13.88 -6.08,-3.14 -12.64,-4.71 -19.7,-4.71l-31 0 0 210.59 -115.13 0 0 -550.17 182.36 0c124,0 186.01,49.9 186.01,149.56 0,19.25 -2.8,36.93 -8.27,53.17 -5.47,16.24 -13.13,30.91 -23.1,44 -9.97,12.97 -22.01,24.23 -36.11,33.66 -14.22,9.56 -29.91,16.89 -47.29,22.26l0 1.57c7.66,2.62 14.96,6.68 22.13,12.44 7.17,5.76 13.98,12.44 20.67,20.17 6.69,7.73 13.01,15.98 19.08,24.75 6.08,8.78 11.55,17.42 16.53,25.93l96.53 162.66zm-313.42 -457.32l0 153.1 49.85 0c24.68,0 44.5,-7.73 59.45,-23.05 15.2,-15.58 22.86,-34.97 22.86,-57.89 0,-48.19 -26.74,-72.16 -80.24,-72.16l-51.91 0z"/>
  <polygon id="_3" class="fil0" points="2455.85,894.14 2149.48,894.14 2149.48,343.97 2444.05,343.97 2444.05,444.81 2264.61,444.81 2264.61,567.26 2431.65,567.26 2431.65,667.7 2264.61,667.7 2264.61,793.56 2455.85,793.56 "/>
  <path id="_4" class="fil0" d="M2990.53 894.14l-125.34 0 -36.35 -122.45 -181.63 0 -35.99 122.45 -124.74 0 186.01 -550.17 136.41 0 181.63 550.17zm-188.07 -217.53l-54.83 -184.92c-4.01,-13.88 -6.93,-30.38 -8.63,-49.5l-2.8 0c-1.21,16.11 -4.13,32.08 -8.87,47.93l-55.56 186.49 130.69 0z"/>
  <polygon id="_5" class="fil0" points="3358.42,894.14 3054.24,894.14 3054.24,343.97 3169.37,343.97 3169.37,793.56 3358.42,793.56 "/>
  <path id="_6" class="fil0" d="M3769.83 874.63c-37.2,19.38 -85.95,29.07 -146.01,29.07 -78.29,0 -139.93,-24.75 -184.8,-74.39 -44.98,-49.63 -67.35,-115.77 -67.35,-198.41 0,-88.01 25.17,-159.38 75.62,-214.12 50.45,-54.74 115.98,-82.11 196.47,-82.11 49.84,0 91.91,6.81 126.07,20.43l0 119.31c-34.16,-22 -73.07,-33 -116.83,-33 -47.9,0 -86.68,16.24 -116.1,48.72 -29.42,32.48 -44.13,76.48 -44.13,132.01 0,53.17 13.86,95.6 41.7,127.16 27.72,31.56 65.16,47.41 112.21,47.41 44.86,0 85.95,-11.79 123.16,-35.36l0 113.28z"/>
  <path id="_7" class="fil0" d="M4065.13 903.7c-73.19,0 -132.76,-25.67 -178.84,-76.87 -46.08,-51.34 -69.06,-118.13 -69.06,-200.5 0,-86.96 23.34,-157.29 70.15,-210.98 46.81,-53.69 108.69,-80.67 185.89,-80.67 72.95,0 131.91,25.8 176.89,77.14 44.98,51.47 67.48,119.3 67.48,203.38 0,86.44 -23.35,156.24 -70.03,209.15 -46.56,52.91 -107.47,79.36 -182.48,79.36zm4.99 -462.3c-40.36,0 -72.46,16.24 -96.17,48.98 -23.71,32.61 -35.62,75.7 -35.62,129.39 0,54.48 11.91,97.57 35.62,129.39 23.71,31.69 54.83,47.54 93.25,47.54 39.75,0 71.12,-15.45 94.46,-46.23 23.22,-30.91 34.89,-73.6 34.89,-128.34 0,-57.1 -11.31,-101.5 -33.8,-133.19 -22.61,-31.69 -53.49,-47.54 -92.64,-47.54z"/>
  <path id="_8" class="fil0" d="M4618.3 903.7c-73.19,0 -132.76,-25.67 -178.84,-76.87 -46.08,-51.34 -69.05,-118.13 -69.05,-200.5 0,-86.96 23.34,-157.29 70.15,-210.98 46.81,-53.69 108.69,-80.67 185.89,-80.67 72.95,0 131.91,25.8 176.89,77.14 44.98,51.47 67.48,119.3 67.48,203.38 0,86.44 -23.35,156.24 -70.03,209.15 -46.56,52.91 -107.47,79.36 -182.48,79.36zm4.99 -462.3c-40.36,0 -72.46,16.24 -96.17,48.98 -23.71,32.61 -35.62,75.7 -35.62,129.39 0,54.48 11.91,97.57 35.62,129.39 23.71,31.69 54.83,47.54 93.25,47.54 39.75,0 71.12,-15.45 94.46,-46.23 23.22,-30.91 34.89,-73.6 34.89,-128.34 0,-57.1 -11.31,-101.5 -33.8,-133.19 -22.61,-31.69 -53.49,-47.54 -92.64,-47.54z"/>
  <path id="_9" class="fil0" d="M5070.68 704.64l0 189.5 -115.13 0 0 -550.17 180.3 0c128.75,0 193.06,58.41 193.06,175.36 0,55.27 -18.48,99.92 -55.44,134.11 -36.96,34.05 -86.19,51.21 -147.95,51.21l-54.83 0zm0 -265.59l0 171.56 45.23 0c61.27,0 91.91,-28.94 91.91,-86.7 0,-56.58 -30.63,-84.86 -91.91,-84.86l-45.23 0z"/>
  <path class="fil0" d="M495.83 1264.86c-58.41,0 -105.63,16.55 -142.62,49.65 -21.42,19.47 -38.94,43.81 -51.11,72.53 -12.66,29.21 -18.99,60.36 -19.47,92.97 -0.49,22.39 2.92,43.32 9.25,61.82 6.82,18.01 16.55,33.58 29.21,46.73 13.14,12.65 29.2,22.39 47.7,29.69 18.98,6.33 39.91,9.73 63.28,9.73 27.26,0 52.08,-7.3 73.5,-22.88 24.34,-16.55 41.38,-37.48 52.57,-63.28 -10.71,6.33 -20.93,12.17 -29.69,17.04 -8.76,4.38 -17.03,8.27 -24.82,11.19 -7.3,2.92 -15.09,4.87 -21.9,6.33 -6.82,0.97 -14.12,1.46 -20.93,1.46 -25.8,0 -45.76,-8.76 -59.38,-26.77 -14.12,-18.01 -20.93,-43.32 -20.45,-75.93 0.49,-22.88 3.41,-43.81 9.74,-63.28 6.33,-19.96 14.6,-36.51 24.82,-50.62 10.22,-14.6 22.88,-25.8 36.99,-33.59 14.12,-8.76 29.21,-12.65 45.27,-12.65 26.28,0 48.19,10.22 65.71,30.66 17.04,-13.14 26.29,-26.77 27.75,-40.4 0.97,-13.63 -2.92,-22.39 -13.14,-26.77 -7.3,-2.44 -14.6,-4.87 -21.42,-6.33 -6.33,-1.95 -12.65,-3.41 -18.98,-4.38 -6.82,-0.98 -13.14,-1.95 -19.96,-1.95 -6.81,-0.97 -14.11,-0.97 -21.9,-0.97z"/>
  <path id="_1_0" class="fil0" d="M707.08 1355.4c-27.74,0 -51.6,8.27 -72.53,24.82 -20.93,16.55 -37.48,37.97 -49.16,64.25 -11.68,26.77 -17.52,54.52 -17.52,84.21 0,15.09 1.95,28.23 5.84,40.89 3.9,12.17 10.71,22.39 19.47,31.64 8.76,8.76 18.5,16.06 28.72,20.44 10.22,4.38 25.31,6.82 44.78,6.82 32.61,0 60.36,-9.74 82.75,-28.23 21.9,-18.99 38.94,-43.32 51.11,-73.5 0.49,-0.49 0,-1.46 -0.49,-2.43 -0.98,-0.97 -1.95,-1.46 -3.41,-1.46 -0.97,-0.49 -1.95,-0.49 -2.92,0 -0.97,0 -1.95,0.97 -2.43,1.95 -14.12,22.39 -28.72,37.48 -43.81,45.75 -15.57,8.27 -30.18,12.17 -43.81,12.17 -14.6,0 -25.31,-4.87 -33.1,-14.6 -7.3,-10.22 -11.19,-20.93 -11.19,-32.61 0,-7.79 0.49,-15.09 1.46,-22.88 16.06,7.3 34.56,7.79 55.49,1.46 20.44,-6.33 38.45,-17.52 54.52,-34.07 15.58,-16.06 23.37,-35.53 23.37,-57.44 0,-16.55 -4.87,-29.69 -14.12,-39.43 -9.73,-9.73 -21.42,-17.04 -34.56,-21.42 -13.63,-4.38 -26.77,-6.33 -38.46,-6.33zm20.93 32.61c8.76,0 13.14,6.33 13.63,18.98 0.98,12.65 -2.92,26.28 -11.19,41.86 -7.79,12.65 -18.5,23.85 -31.64,34.07 -13.14,10.71 -25.8,18.98 -37.48,24.82 3.9,-29.69 11.68,-56.46 23.37,-80.31 12.17,-23.85 26.28,-36.99 43.32,-39.43z"/>
  <path id="_2_1" class="fil0" d="M972.85 1355.4c-13.63,0 -26.77,3.41 -38.94,10.22 -11.68,6.33 -20.93,14.6 -26.77,23.36l0.49 -0.49c0.97,-5.84 -0.98,-10.71 -5.84,-14.6 -4.38,-3.89 -11.2,-5.84 -19.47,-5.84l-26.29 0c-8.27,0 -15.57,1.95 -21.9,5.84 -6.81,3.9 -10.71,8.76 -12.17,14.6l-48.19 219.04c-0.98,5.84 0.49,10.71 5.35,14.6 4.87,3.89 11.2,5.84 19.47,5.84l26.28 0c8.28,0 15.58,-1.95 22.39,-5.84 6.33,-3.89 10.22,-8.76 11.68,-14.6l38.94 -174.26c10.22,-30.18 22.39,-45.27 36.51,-45.27 11.68,0 20.44,5.35 26.28,16.55 5.35,10.71 5.35,23.36 -0.97,37.48 17.03,7.79 32.12,8.76 46.24,1.95 13.63,-6.33 22.88,-16.06 28.72,-29.2 5.35,-13.14 3.89,-24.83 -3.89,-35.53 -7.79,-8.76 -17.04,-14.6 -27.26,-18.5 -10.22,-3.41 -20.44,-5.35 -30.66,-5.35z"/>
  <path id="_3_2" class="fil0" d="M1159.76 1355.4c-27.74,0 -51.6,8.27 -72.53,24.82 -20.93,16.55 -37.48,37.97 -49.16,64.25 -11.68,26.77 -17.52,54.52 -17.52,84.21 0,15.09 1.95,28.23 5.84,40.89 3.9,12.17 10.71,22.39 19.47,31.64 8.76,8.76 18.5,16.06 28.72,20.44 10.22,4.38 25.31,6.82 44.78,6.82 32.61,0 60.36,-9.74 82.75,-28.23 21.9,-18.99 38.94,-43.32 51.11,-73.5 0.49,-0.49 0,-1.46 -0.49,-2.43 -0.98,-0.97 -1.95,-1.46 -3.41,-1.46 -0.97,-0.49 -1.95,-0.49 -2.92,0 -0.97,0 -1.95,0.97 -2.43,1.95 -14.12,22.39 -28.72,37.48 -43.81,45.75 -15.57,8.27 -30.18,12.17 -43.81,12.17 -14.6,0 -25.31,-4.87 -33.1,-14.6 -7.3,-10.22 -11.19,-20.93 -11.19,-32.61 0,-7.79 0.49,-15.09 1.46,-22.88 16.06,7.3 34.56,7.79 55.49,1.46 20.44,-6.33 38.45,-17.52 54.52,-34.07 15.58,-16.06 23.37,-35.53 23.37,-57.44 0,-16.55 -4.87,-29.69 -14.12,-39.43 -9.73,-9.73 -21.42,-17.04 -34.56,-21.42 -13.63,-4.38 -26.77,-6.33 -38.46,-6.33zm20.93 32.61c8.76,0 13.14,6.33 13.63,18.98 0.98,12.65 -2.92,26.28 -11.19,41.86 -7.79,12.65 -18.5,23.85 -31.64,34.07 -13.14,10.71 -25.8,18.98 -37.48,24.82 3.9,-29.69 11.68,-56.46 23.37,-80.31 12.17,-23.85 26.28,-36.99 43.32,-39.43z"/>
  <path id="_4_3" class="fil0" d="M1373.45 1354.91c-28.23,0 -53.06,8.27 -73.5,25.31 -20.93,17.03 -36.99,39.43 -48.19,66.68 -11.68,26.77 -17.04,55.49 -17.04,85.18 0,26.28 7.79,48.67 23.85,67.17 16.55,18.5 36.02,28.23 58.9,28.23 16.55,0 30.66,-4.87 41.86,-13.63 11.68,-8.76 20.93,-19.96 27.26,-34.07 1.95,14.12 7.79,25.8 16.55,34.56 9.25,8.76 20.93,13.63 36.02,13.63 20.44,0 36.51,-5.35 48.19,-15.09 12.17,-10.22 21.42,-22.88 28.23,-38.45 6.33,-15.57 11.68,-31.64 15.09,-48.67 0,-1.46 -0.49,-2.43 -1.95,-2.92 -1.46,-0.49 -2.92,-0.97 -4.38,-0.49 -1.46,0.49 -2.92,1.46 -3.41,3.41 -2.92,10.22 -7.3,20.93 -13.14,33.1 -6.33,11.68 -13.63,18.01 -22.39,18.98 -5.35,0 -8.76,-1.46 -10.71,-5.36 -1.95,-3.89 -2.44,-8.27 -2.44,-13.63 0.49,-5.84 0.98,-10.71 1.95,-16.06l34.56 -154.79c0.97,-5.84 -0.98,-11.2 -5.84,-15.09 -4.38,-3.9 -11.2,-5.84 -19.47,-5.84l-26.29 0c-8.27,0 -15.57,1.95 -21.9,5.84 -6.81,3.89 -10.71,9.25 -12.17,15.09l0 0.97c-3.41,-11.68 -10.22,-19.96 -20.44,-25.8 -10.71,-5.84 -20.44,-8.27 -29.2,-8.27zm21.42 32.61c8.76,0 14.12,4.87 17.04,14.12 2.92,9.73 3.41,19.96 1.46,30.18l-25.31 114.87c-0.49,1.46 -0.49,2.92 -0.97,4.38 -3.9,10.71 -8.28,20.44 -14.12,29.69 -5.84,9.25 -12.65,13.63 -21.42,13.63 -9.74,-0.98 -16.55,-7.79 -19.96,-20.45 -3.89,-12.65 -5.35,-24.82 -5.35,-36.02 0,-38.45 7.3,-73.01 21.9,-104.17 14.6,-30.66 30.18,-46.24 46.73,-46.24z"/>
  <path id="_5_4" class="fil0" d="M1606.11 1264.38c-8.27,0 -15.57,1.95 -21.9,5.84 -6.81,3.89 -10.71,8.76 -12.17,14.6l-57.92 261.87c-4.38,22.39 -2.43,41.37 6.82,56.95 9.25,16.06 23.85,24.34 44.29,24.34 20.44,0 36.51,-5.35 48.67,-15.09 11.68,-10.22 21.42,-22.88 27.74,-38.45 6.82,-15.57 11.68,-31.64 15.09,-48.67 0,-1.46 -0.49,-2.43 -1.95,-2.92 -0.98,-0.49 -2.44,-0.97 -4.38,-0.49 -1.46,0.49 -2.43,1.46 -2.92,3.41 -2.92,10.22 -7.3,20.93 -13.63,33.1 -6.33,11.68 -13.63,18.01 -22.39,18.98 -4.87,0 -8.76,-1.46 -10.22,-5.36 -1.95,-3.89 -2.92,-8.27 -2.44,-13.63 0,-5.84 0.49,-10.71 1.95,-16.06l56.95 -257.98c0.97,-5.84 -0.98,-10.71 -5.84,-14.6 -4.87,-3.89 -11.19,-5.84 -19.47,-5.84l-26.29 0z"/>
  <path id="_6_5" class="fil0" d="M1775.5 1355.4c-27.74,0 -51.6,8.27 -72.53,24.82 -20.93,16.55 -37.48,37.97 -49.16,64.25 -11.68,26.77 -17.52,54.52 -17.52,84.21 0,15.09 1.95,28.23 5.84,40.89 3.9,12.17 10.71,22.39 19.47,31.64 8.76,8.76 18.5,16.06 28.72,20.44 10.22,4.38 25.31,6.82 44.78,6.82 32.61,0 60.36,-9.74 82.75,-28.23 21.9,-18.99 38.94,-43.32 51.11,-73.5 0.49,-0.49 0,-1.46 -0.49,-2.43 -0.98,-0.97 -1.95,-1.46 -3.41,-1.46 -0.97,-0.49 -1.95,-0.49 -2.92,0 -0.97,0 -1.95,0.97 -2.43,1.95 -14.12,22.39 -28.72,37.48 -43.81,45.75 -15.57,8.27 -30.18,12.17 -43.81,12.17 -14.6,0 -25.31,-4.87 -33.1,-14.6 -7.3,-10.22 -11.19,-20.93 -11.19,-32.61 0,-7.79 0.49,-15.09 1.46,-22.88 16.06,7.3 34.56,7.79 55.49,1.46 20.44,-6.33 38.45,-17.52 54.52,-34.07 15.58,-16.06 23.37,-35.53 23.37,-57.44 0,-16.55 -4.87,-29.69 -14.12,-39.43 -9.73,-9.73 -21.42,-17.04 -34.56,-21.42 -13.63,-4.38 -26.77,-6.33 -38.46,-6.33zm20.93 32.61c8.76,0 13.14,6.33 13.63,18.98 0.98,12.65 -2.92,26.28 -11.19,41.86 -7.79,12.65 -18.5,23.85 -31.64,34.07 -13.14,10.71 -25.8,18.98 -37.48,24.82 3.9,-29.69 11.68,-56.46 23.37,-80.31 12.17,-23.85 26.28,-36.99 43.32,-39.43z"/>
  <path id="_7_6" class="fil0" d="M1938.57 1344.2c-13.14,0 -24.34,4.87 -34.56,14.6 -10.22,9.74 -16.55,20.93 -18.98,34.07l-27.26 123.15c-5.35,3.9 -9.73,9.25 -12.17,16.06 -2.92,7.3 -4.38,15.09 -4.38,23.36 0,20.93 7.3,38.45 22.39,52.08 15.09,14.11 35.53,20.93 62.3,20.93 36.02,0 65.22,-9.25 88.59,-27.75 22.88,-18.5 34.56,-42.83 34.56,-73.5 -0.49,-15.58 -4.87,-30.66 -13.14,-44.78 -8.27,-14.6 -18.01,-28.23 -28.23,-41.37 -9.25,-12.17 -17.52,-23.36 -24.34,-34.56 -6.82,-11.19 -10.22,-22.39 -10.22,-33.1 0,-0.49 0,-1.95 0.49,-4.38 0.49,-2.43 1.46,-4.87 2.44,-7.3 0.97,-2.43 1.95,-4.38 3.41,-5.84 -5.84,-4.87 -12.17,-8.27 -18.98,-9.73 -6.81,-0.97 -14.11,-1.95 -21.9,-1.95zm-47.7 86.16c9.73,20.44 22.39,39.91 37.97,57.92 9.25,11.68 17.53,22.88 24.83,33.59 6.81,10.71 10.22,21.42 10.22,32.12 0,12.65 -3.41,23.36 -10.71,32.12 -7.3,8.76 -16.55,13.14 -27.74,13.14 -13.14,0 -24.34,-2.92 -33.1,-9.25 -9.25,-6.82 -13.63,-18.01 -13.63,-34.56 0,-6.33 2.44,-12.66 7.3,-19.47 4.87,-6.81 10.22,-11.68 16.55,-14.6 -11.19,-7.3 -21.42,-10.71 -29.69,-10.22l18.01 -80.8z"/>
  <path id="_8_7" class="fil0" d="M2373.72 1355.4c-8.27,0 -18.5,2.43 -32.12,8.27 -13.14,5.84 -23.85,14.12 -32.12,25.8l-0.49 0.49 0.49 -1.95c0.97,-5.84 -0.49,-10.71 -5.36,-14.6 -4.87,-3.9 -11.19,-5.84 -19.47,-5.84l-26.28 0c-8.27,0 -15.57,1.95 -22.39,5.84 -6.33,3.89 -10.22,8.76 -11.68,14.6 0,0 0,0 -0.49,0 0,0 0,0 0,0l-74.96 338.78c-0.97,5.84 0.97,10.71 5.35,14.6 4.87,3.89 11.68,5.84 19.47,5.84l26.77 0c7.79,0 15.58,-1.95 21.9,-5.84 6.33,-3.9 10.71,-8.76 12.17,-14.6l65.22 -293.51c2.44,-10.71 7.79,-20.93 14.6,-30.66 7.3,-9.74 15.09,-14.6 23.37,-14.6 17.52,0 25.8,16.55 26.28,49.65 0,17.04 -2.43,35.53 -7.3,55.98 -4.87,20.93 -12.66,39.43 -22.88,55 -15.57,1.95 -29.2,5.84 -40.4,12.17 -11.68,6.33 -17.52,17.04 -18.5,31.64 0,9.73 2.92,18.01 8.27,24.82 5.84,6.82 14.6,10.71 26.29,10.71 23.85,0 45.27,-6.33 64.25,-18.5 18.99,-12.17 34.56,-28.23 46.73,-47.7 13.63,-1.46 26.28,-4.38 36.99,-9.25 11.19,-4.87 19.96,-13.14 27.26,-24.82 0.49,-1.95 0.49,-3.41 -0.98,-3.9 -0.97,-0.97 -2.43,-1.46 -3.89,-0.97 -1.95,0 -3.41,0.97 -4.38,2.92 -10.22,10.71 -25.31,17.03 -44.78,18.98 16.06,-33.58 24.34,-67.17 24.34,-101.24 0.49,-25.8 -6.33,-47.21 -19.47,-63.76 -13.14,-16.55 -34.07,-24.34 -61.82,-24.34z"/>
  <path id="_9_8" class="fil0" d="M2600.06 1354.91c-28.23,0 -53.06,8.27 -73.5,25.31 -20.93,17.03 -36.99,39.43 -48.19,66.68 -11.68,26.77 -17.04,55.49 -17.04,85.18 0,26.28 7.79,48.67 23.85,67.17 16.55,18.5 36.02,28.23 58.9,28.23 16.55,0 30.66,-4.87 41.86,-13.63 11.68,-8.76 20.93,-19.96 27.26,-34.07 1.95,14.12 7.79,25.8 16.55,34.56 9.25,8.76 20.93,13.63 36.02,13.63 20.44,0 36.51,-5.35 48.19,-15.09 12.17,-10.22 21.42,-22.88 28.23,-38.45 6.33,-15.57 11.68,-31.64 15.09,-48.67 0,-1.46 -0.49,-2.43 -1.95,-2.92 -1.46,-0.49 -2.92,-0.97 -4.38,-0.49 -1.46,0.49 -2.92,1.46 -3.41,3.41 -2.92,10.22 -7.3,20.93 -13.14,33.1 -6.33,11.68 -13.63,18.01 -22.39,18.98 -5.35,0 -8.76,-1.46 -10.71,-5.36 -1.95,-3.89 -2.44,-8.27 -2.44,-13.63 0.49,-5.84 0.98,-10.71 1.95,-16.06l34.56 -154.79c0.97,-5.84 -0.98,-11.2 -5.84,-15.09 -4.38,-3.9 -11.2,-5.84 -19.47,-5.84l-26.29 0c-8.27,0 -15.57,1.95 -21.9,5.84 -6.81,3.89 -10.71,9.25 -12.17,15.09l0 0.97c-3.41,-11.68 -10.22,-19.96 -20.44,-25.8 -10.71,-5.84 -20.44,-8.27 -29.2,-8.27zm21.42 32.61c8.76,0 14.12,4.87 17.04,14.12 2.92,9.73 3.41,19.96 1.46,30.18l-25.31 114.87c-0.49,1.46 -0.49,2.92 -0.97,4.38 -3.9,10.71 -8.28,20.44 -14.12,29.69 -5.84,9.25 -12.65,13.63 -21.42,13.63 -9.74,-0.98 -16.55,-7.79 -19.96,-20.45 -3.89,-12.65 -5.35,-24.82 -5.35,-36.02 0,-38.45 7.3,-73.01 21.9,-104.17 14.6,-30.66 30.18,-46.24 46.73,-46.24z"/>
  <path id="_10" class="fil0" d="M2927.16 1355.4c-13.63,0 -26.77,3.41 -38.94,10.22 -11.68,6.33 -20.93,14.6 -26.77,23.36l0.49 -0.49c0.97,-5.84 -0.98,-10.71 -5.84,-14.6 -4.38,-3.89 -11.2,-5.84 -19.47,-5.84l-26.29 0c-8.27,0 -15.57,1.95 -21.9,5.84 -6.81,3.9 -10.71,8.76 -12.17,14.6l-48.19 219.04c-0.98,5.84 0.49,10.71 5.35,14.6 4.87,3.89 11.2,5.84 19.47,5.84l26.28 0c8.28,0 15.58,-1.95 22.39,-5.84 6.33,-3.89 10.22,-8.76 11.68,-14.6l38.94 -174.26c10.22,-30.18 22.39,-45.27 36.51,-45.27 11.68,0 20.44,5.35 26.28,16.55 5.35,10.71 5.35,23.36 -0.97,37.48 17.03,7.79 32.12,8.76 46.24,1.95 13.63,-6.33 22.88,-16.06 28.72,-29.2 5.35,-13.14 3.89,-24.83 -3.89,-35.53 -7.79,-8.76 -17.04,-14.6 -27.26,-18.5 -10.22,-3.41 -20.44,-5.35 -30.66,-5.35z"/>
  <path id="_11" class="fil0" d="M3113.58 1354.91c-28.23,0 -53.06,8.27 -73.5,25.8 -20.93,17.03 -36.99,38.94 -48.19,66.2 -11.68,26.77 -17.04,55.49 -17.04,85.18 0,26.28 7.79,48.67 24.34,67.17 16.06,18.99 35.53,28.23 58.41,28.23 16.55,0 30.66,-4.38 42.35,-13.63 11.19,-8.76 20.44,-19.96 26.77,-34.07 1.95,14.12 7.79,25.8 16.55,34.56 9.25,9.25 20.93,13.63 36.02,13.63 13.14,0 23.85,-2.92 32.61,-8.27 8.27,-5.36 15.09,-12.17 18.98,-20.93 4.38,-8.28 6.33,-17.04 6.33,-25.8 -3.41,3.41 -7.3,4.87 -11.68,5.35 -5.35,0 -8.76,-1.95 -10.71,-5.84 -1.46,-3.89 -2.44,-8.27 -2.44,-13.63 0.49,-5.36 0.98,-10.71 1.95,-16.06l34.56 -154.79c0.97,-5.84 -0.98,-10.71 -5.36,-14.6 -4.87,-4.38 -11.68,-6.33 -19.47,-6.33l-26.77 0c-8.27,0.49 -15.57,2.43 -21.9,6.33 -6.81,3.89 -10.71,8.76 -12.17,14.6l0 0.97c-3.41,-11.19 -10.22,-19.96 -20.44,-25.31 -10.71,-5.84 -19.96,-8.76 -29.2,-8.76zm21.42 32.61c8.76,0 14.12,4.87 17.04,14.6 2.92,9.25 3.41,19.47 1.46,30.18l-25.31 114.39c-0.49,1.46 -0.49,2.92 -0.97,4.87 -3.9,10.22 -8.28,19.96 -14.12,29.21 -5.84,9.25 -12.65,13.63 -21.42,13.63 -9.74,-0.98 -16.55,-7.79 -19.96,-20.45 -3.89,-12.65 -5.35,-24.82 -5.35,-36.02 0,-38.45 7.3,-73.01 21.9,-104.17 15.09,-30.66 30.66,-46.24 46.73,-46.24z"/>
  <path id="_12" class="fil0" d="M3616.88 1264.38c-8.27,0 -15.58,1.95 -21.9,5.84 -6.82,3.89 -10.71,8.76 -12.17,14.6l-22.88 103.68c-3.41,-11.19 -10.22,-19.47 -20.44,-25.31 -10.22,-5.84 -19.96,-8.27 -28.72,-8.27 -28.72,0 -53.06,8.27 -73.99,25.31 -20.93,17.03 -36.99,39.43 -48.19,66.68 -11.2,26.77 -17.04,55.49 -17.04,85.18 0,26.28 8.28,48.67 24.34,67.17 16.06,18.5 35.53,28.23 58.41,28.23 16.55,0 30.66,-4.87 42.35,-13.63 11.68,-8.76 20.44,-19.96 26.77,-34.07 2.43,14.12 7.79,25.8 17.03,34.56 8.76,8.76 20.93,13.63 35.54,13.63 20.44,0 36.51,-5.35 48.67,-15.09 12.17,-10.22 21.42,-22.88 27.74,-38.45 6.81,-15.57 11.68,-31.64 15.09,-48.67 0.49,-1.46 -0.49,-2.43 -1.46,-2.92 -1.46,-0.49 -2.92,-0.97 -4.38,-0.49 -1.95,0.49 -2.92,1.46 -3.41,3.41 -2.92,10.22 -7.3,20.93 -13.63,33.1 -6.33,11.68 -13.63,18.01 -22.39,18.98 -4.87,0 -8.76,-1.46 -10.22,-5.36 -1.95,-3.89 -2.92,-8.27 -2.43,-13.63 0,-5.84 0.49,-10.71 1.95,-16.06l56.95 -257.98c0.98,-5.84 -0.97,-10.71 -5.84,-14.6 -4.38,-3.89 -11.19,-5.84 -19.47,-5.84l-26.28 0zm-84.69 123.15c8.27,0 13.63,4.38 16.55,13.63 2.92,9.25 3.41,18.98 1.95,29.69l-25.8 115.85c0,1.46 -0.49,2.92 -0.97,4.38 -3.41,10.71 -8.28,20.44 -14.12,29.69 -5.35,9.25 -12.65,13.63 -20.93,13.63 -10.22,-0.98 -17.03,-7.79 -20.44,-20.45 -3.41,-12.65 -5.35,-24.82 -5.35,-36.02 0,-38.45 7.3,-73.01 22.39,-104.17 14.6,-30.66 30.18,-46.24 46.73,-46.24z"/>
  <path id="_13" class="fil0" d="M3788.22 1355.4c-27.74,0 -51.6,8.27 -72.53,24.82 -20.93,16.55 -37.48,37.97 -49.16,64.25 -11.68,26.77 -17.52,54.52 -17.52,84.21 0,15.09 1.95,28.23 5.84,40.89 3.9,12.17 10.71,22.39 19.47,31.64 8.76,8.76 18.5,16.06 28.72,20.44 10.22,4.38 25.31,6.82 44.78,6.82 32.61,0 60.36,-9.74 82.75,-28.23 21.9,-18.99 38.94,-43.32 51.11,-73.5 0.49,-0.49 0,-1.46 -0.49,-2.43 -0.98,-0.97 -1.95,-1.46 -3.41,-1.46 -0.97,-0.49 -1.95,-0.49 -2.92,0 -0.97,0 -1.95,0.97 -2.43,1.95 -14.12,22.39 -28.72,37.48 -43.81,45.75 -15.57,8.27 -30.18,12.17 -43.81,12.17 -14.6,0 -25.31,-4.87 -33.1,-14.6 -7.3,-10.22 -11.19,-20.93 -11.19,-32.61 0,-7.79 0.49,-15.09 1.46,-22.88 16.06,7.3 34.56,7.79 55.49,1.46 20.44,-6.33 38.45,-17.52 54.52,-34.07 15.58,-16.06 23.37,-35.53 23.37,-57.44 0,-16.55 -4.87,-29.69 -14.12,-39.43 -9.73,-9.73 -21.42,-17.04 -34.56,-21.42 -13.63,-4.38 -26.77,-6.33 -38.46,-6.33zm20.93 32.61c8.76,0 13.14,6.33 13.63,18.98 0.98,12.65 -2.92,26.28 -11.19,41.86 -7.79,12.65 -18.5,23.85 -31.64,34.07 -13.14,10.71 -25.8,18.98 -37.48,24.82 3.9,-29.69 11.68,-56.46 23.37,-80.31 12.17,-23.85 26.28,-36.99 43.32,-39.43z"/>
  <path id="_14" class="fil0" d="M3951.28 1344.2c-12.66,0 -24.34,4.87 -34.56,14.6 -10.22,9.74 -16.55,20.93 -18.5,33.59l-27.26 123.15c-5.84,3.89 -9.73,9.73 -12.65,16.55 -2.92,7.3 -4.38,15.09 -4.38,23.36 0,20.93 7.79,37.97 22.39,52.08 15.09,13.63 36.02,20.93 62.3,20.93 21.91,0 41.86,-3.9 59.38,-10.71 26.29,-2.92 47.22,-12.66 63.76,-29.2 16.06,-16.55 27.26,-37 33.59,-60.84 0,-1.95 -0.49,-3.41 -1.95,-3.9 -0.97,-0.97 -2.43,-1.46 -4.38,-0.97 -1.46,0.49 -2.43,1.46 -2.92,2.43 -6.33,23.36 -18.98,39.91 -36.51,49.65 8.27,-14.12 12.65,-30.18 12.65,-48.19 -0.97,-15.09 -5.35,-30.18 -13.63,-44.29 -8.27,-14.6 -17.52,-28.23 -28.23,-41.86 -9.25,-11.68 -17.03,-23.36 -24.34,-34.56 -6.82,-11.2 -10.22,-21.91 -10.22,-32.61 0,-0.98 0.49,-2.44 0.97,-4.38 0,-2.43 0.97,-4.87 1.95,-7.3 0.97,-2.43 1.95,-4.38 3.41,-5.84 -5.84,-5.35 -12.17,-8.27 -18.98,-9.73 -6.81,-1.46 -14.11,-1.95 -21.9,-1.95zm-47.7 85.67c9.73,20.93 22.39,40.4 37.97,58.41 9.74,11.68 18.01,22.39 24.83,33.59 6.81,10.71 10.71,21.42 10.71,31.64 0,13.14 -3.9,23.85 -11.2,32.61 -7.3,8.76 -16.55,13.14 -27.26,13.14 -13.14,0 -24.34,-3.41 -33.58,-9.73 -9.25,-6.33 -13.63,-17.52 -13.63,-34.07 0,-6.33 2.44,-13.14 7.3,-19.96 4.87,-6.81 10.71,-11.68 17.04,-14.11 -11.68,-7.3 -21.9,-10.71 -30.18,-10.22l18.01 -81.29z"/>
  <path id="_15" class="fil0" d="M4213.64 1354.91c-28.23,0 -53.06,8.27 -73.5,25.31 -20.93,17.03 -36.99,39.43 -48.19,66.68 -11.68,26.77 -17.04,55.49 -17.04,85.18 0,26.28 7.79,48.67 23.85,67.17 16.55,18.5 36.02,28.23 58.9,28.23 16.55,0 30.66,-4.87 41.86,-13.63 11.68,-8.76 20.93,-19.96 27.26,-34.07 1.95,14.12 7.79,25.8 16.55,34.56 9.25,8.76 20.93,13.63 36.02,13.63 20.44,0 36.51,-5.35 48.19,-15.09 12.17,-10.22 21.42,-22.88 28.23,-38.45 6.33,-15.57 11.68,-31.64 15.09,-48.67 0,-1.46 -0.49,-2.43 -1.95,-2.92 -1.46,-0.49 -2.92,-0.97 -4.38,-0.49 -1.46,0.49 -2.92,1.46 -3.41,3.41 -2.92,10.22 -7.3,20.93 -13.14,33.1 -6.33,11.68 -13.63,18.01 -22.39,18.98 -5.35,0 -8.76,-1.46 -10.71,-5.36 -1.95,-3.89 -2.44,-8.27 -2.44,-13.63 0.49,-5.84 0.98,-10.71 1.95,-16.06l34.56 -154.79c0.97,-5.84 -0.98,-11.2 -5.84,-15.09 -4.38,-3.9 -11.2,-5.84 -19.47,-5.84l-26.29 0c-8.27,0 -15.57,1.95 -21.9,5.84 -6.81,3.89 -10.71,9.25 -12.17,15.09l0 0.97c-3.41,-11.68 -10.22,-19.96 -20.44,-25.8 -10.71,-5.84 -20.44,-8.27 -29.2,-8.27zm21.42 32.61c8.76,0 14.12,4.87 17.04,14.12 2.92,9.73 3.41,19.96 1.46,30.18l-25.31 114.87c-0.49,1.46 -0.49,2.92 -0.97,4.38 -3.9,10.71 -8.28,20.44 -14.12,29.69 -5.84,9.25 -12.65,13.63 -21.42,13.63 -9.74,-0.98 -16.55,-7.79 -19.96,-20.45 -3.89,-12.65 -5.35,-24.82 -5.35,-36.02 0,-38.45 7.3,-73.01 21.9,-104.17 14.6,-30.66 30.18,-46.24 46.73,-46.24z"/>
  <path id="_16" class="fil0" d="M4572.38 1367.57c-8.76,0 -16.06,1.95 -22.39,5.84 -6.33,4.38 -10.22,9.25 -11.68,14.6l-36.51 164.03c-10.71,29.2 -22.88,43.32 -36.51,43.32 -10.71,0 -18.01,-4.38 -21.42,-14.12 -3.89,-9.25 -4.87,-20.93 -3.89,-34.07 0.49,-13.14 2.43,-25.8 4.87,-38.45l26.77 -120.23c1.46,-6.33 -0.49,-11.19 -5.35,-15.09 -4.87,-3.9 -11.2,-5.84 -19.47,-5.84l-26.28 0c-8.28,0 -15.58,1.95 -22.39,5.84 -6.33,3.89 -10.22,8.76 -11.68,15.09l-29.69 131.91c-8.28,34.56 -4.87,60.84 9.25,79.83 14.6,18.5 35.05,28.23 61.33,28.23 15.09,0 27.74,-2.92 37.97,-8.76 10.22,-5.84 18.98,-13.63 26.28,-23.37l-5.84 26.29c-2.92,0.97 -6.33,1.95 -9.25,2.43 -14.12,3.41 -27.74,7.79 -41.86,12.65 -13.63,5.36 -25.31,12.17 -35.05,21.42 -9.25,8.76 -14.12,20.93 -14.12,36.51 0,12.66 3.9,22.39 11.68,30.18 7.79,7.79 17.53,13.63 28.72,17.04 11.2,3.89 21.9,5.35 32.12,5.35 23.85,0 45.76,-5.84 65.22,-18.01 19.96,-11.68 33.1,-33.58 39.92,-64.74l6.81 -30.67c22.39,-6.33 39.91,-19.96 52.08,-41.37 12.17,-20.93 19.96,-43.81 23.85,-67.17 0,-1.46 -0.49,-2.44 -1.95,-2.92 -0.97,-0.49 -2.43,-0.98 -4.38,-0.49 -1.46,0.49 -2.43,1.46 -3.41,3.41 -5.35,18.98 -13.14,36.99 -23.36,53.54 -10.22,17.04 -22.88,29.21 -38.94,36.02l50.14 -227.8c1.46,-4.87 0,-9.25 -4.38,-13.63 -3.9,-4.87 -11.2,-6.82 -20.45,-6.82l-26.77 0zm-90.05 270.63l-6.33 28.72c-2.92,13.63 -7.3,22.88 -13.63,28.72 -6.33,6.33 -12.65,9.25 -19.96,9.25 -4.87,0 -10.22,-1.46 -15.58,-3.89 -5.84,-2.92 -8.76,-6.82 -8.76,-12.17 0,-10.71 3.41,-19.47 10.22,-25.8 6.82,-6.33 15.09,-11.68 24.83,-15.09 9.25,-3.9 18.5,-6.82 26.77,-8.76 0.97,-0.49 1.46,-0.49 2.43,-0.97z"/>
  <path id="_17" class="fil0" d="M4695.53 1367.08c-8.28,0 -15.58,1.95 -22.39,5.84 -6.33,3.89 -10.22,8.76 -12.17,15.09l-29.2 131.91c-8.28,34.56 -4.87,60.84 9.25,79.83 14.6,18.5 35.05,28.23 61.33,28.23 18.5,0 34.07,-4.87 45.75,-13.63 11.68,-8.76 20.93,-19.96 28.72,-33.58 2.43,13.63 7.79,25.31 17.03,34.07 8.76,8.76 20.93,13.14 35.54,13.14 20.44,0 36.51,-5.35 48.19,-15.09 12.17,-10.22 21.42,-22.88 28.23,-38.45 6.33,-15.57 11.19,-31.64 15.09,-48.67 0,-1.46 -0.49,-2.43 -1.95,-2.92 -1.46,-0.49 -2.92,-0.97 -4.38,-0.49 -1.46,0.49 -2.92,1.46 -3.41,3.41 -2.92,10.22 -7.3,20.93 -13.14,33.1 -6.33,11.68 -13.63,18.01 -22.39,18.98 -5.35,0 -8.76,-1.46 -10.71,-5.36 -1.95,-3.89 -2.44,-8.27 -2.44,-13.63 0.49,-5.84 0.98,-10.71 1.95,-16.06l34.56 -154.79c0.97,-6.33 -0.98,-11.2 -5.84,-15.09 -4.38,-3.9 -11.2,-5.84 -19.47,-5.84l-26.29 0c-8.27,0 -15.57,1.95 -21.9,5.84 -6.81,3.89 -10.71,8.76 -12.17,15.09l-28.23 126.55 -5.35 23.85c-3.41,17.04 -9.25,30.67 -16.55,40.89 -7.3,10.71 -15.09,15.57 -22.88,15.57 -11.2,0 -18.5,-4.38 -21.91,-14.11 -3.41,-9.25 -4.38,-20.93 -3.89,-34.07 0.97,-13.14 2.92,-25.8 5.35,-38.45l26.77 -120.23c0.98,-6.33 -0.49,-11.2 -5.35,-15.09 -4.87,-3.9 -11.2,-5.84 -19.47,-5.84l-26.28 0z"/>
  <path id="_18" class="fil0" d="M5090.28 1354.91c-13.63,0 -26.77,3.41 -38.94,10.22 -12.17,6.82 -20.93,15.09 -26.77,24.34l0.49 -1.46c0.97,-5.84 -0.49,-10.71 -5.35,-14.6 -4.87,-3.9 -11.2,-5.84 -19.47,-5.84l-26.29 0c-8.27,0 -15.57,1.95 -22.39,5.84 -6.33,3.89 -10.22,8.76 -12.17,14.6l-48.19 219.04c-0.97,5.84 0.98,10.71 5.36,14.6 4.87,3.9 11.68,5.84 19.47,5.84l26.77 0c8.28,0 15.58,-1.95 21.91,-5.84 6.33,-3.89 10.71,-8.76 12.17,-14.6l37 -168.9c4.38,-15.09 9.73,-27.26 16.55,-36.51 7.3,-9.25 14.6,-14.12 21.91,-14.12 11.19,0 18.5,4.87 21.9,14.6 3.41,9.25 4.38,20.44 3.89,34.07 -0.97,13.14 -2.92,25.8 -5.35,37.97l-17.04 74.96c-2.92,13.63 -2.92,26.28 0.49,38.45 2.92,11.68 9.25,21.42 18.01,29.21 8.76,7.3 19.96,11.19 34.07,11.19 19.96,0 36.02,-4.87 48.19,-15.09 12.17,-9.73 21.42,-22.39 27.75,-37.97 6.81,-15.58 11.68,-32.13 15.09,-49.16 0.49,-0.97 0,-1.95 -0.98,-2.43 -0.97,-0.49 -2.43,-0.98 -3.41,-0.98 -1.46,0.49 -2.43,0.49 -2.92,0.98 -0.97,0.49 -1.95,1.46 -1.95,2.43 -2.92,10.22 -7.3,21.42 -13.63,33.1 -5.84,12.17 -13.63,18.5 -22.39,19.47 -4.87,0 -8.27,-1.95 -10.22,-5.84 -1.95,-3.41 -2.92,-8.27 -2.43,-13.63 0,-5.36 0.49,-10.71 1.95,-16.06l17.52 -80.31c8.28,-34.07 5.36,-60.36 -9.25,-79.34 -14.6,-18.98 -35.05,-28.23 -61.33,-28.23z"/>
  <path id="_19" class="fil0" d="M5339.01 1355.4c-42.35,0 -76.91,12.17 -102.7,36.51 -15.09,14.6 -27.74,33.1 -36.99,55.49 -9.25,21.9 -14.11,45.27 -15.09,70.09 -1.95,37 6.82,64.74 25.31,83.23 18.98,18.5 47.7,27.75 86.64,27.75 17.52,0 33.1,-2.44 46.24,-6.82 14.11,-3.89 26.77,-10.22 38.94,-18.98 19.47,-14.6 35.05,-34.07 46.73,-57.92 12.17,-24.34 18.98,-50.13 19.96,-77.39 1.46,-36.02 -6.82,-63.76 -25.31,-82.75 -18.99,-19.47 -46.73,-29.2 -83.72,-29.2zm-3.89 21.42c20.93,0 30.66,22.39 29.2,66.68 -0.49,16.55 -2.92,35.05 -6.33,55.49 -3.89,20.44 -8.27,37.97 -13.63,53.54 -12.17,36.02 -27.26,54.03 -46.24,54.03 -21.91,0 -32.13,-22.88 -30.18,-69.61 0.97,-21.42 3.41,-41.86 7.3,-60.84 3.89,-19.96 8.76,-36.99 15.09,-51.6 5.84,-14.6 12.65,-26.28 20.44,-35.05 7.79,-8.28 16.06,-12.66 24.34,-12.66z"/>
  <rect class="fil1 str0" x="32.91" y="32.91" width="5500.24" height="1167.32" rx="197.45" ry="197.45"/>
  <g id="_1329563140528">
   <path class="fil2" d="M869.76 1194.31c-10.91,-1.84 -29.6,-6 -54.28,-14.53 -102.94,-35.61 -310.31,-147.64 -493.95,-488.03 -42.42,-70.7 -113.97,-237.73 -125.05,-322.28 1.28,7.82 7.56,-13 9.18,-5.85 26.76,118.03 133.9,347.19 201.44,443.3 17.77,25.3 38.33,52.84 62.39,83.2 93.35,117.86 242.93,277.67 398.12,290.82l2.14 13.37z"/>
   <path class="fil2" d="M246.84 913.6c27.72,31.24 78.41,84.56 123.46,102.33 86.22,33.99 94.36,-29.52 74.57,-82.46 -17.6,-47.1 -158.61,-25.26 -198.03,-19.86z"/>
   <path class="fil2" d="M146.59 720.82c13.68,20.14 55.18,144.84 176.29,119.19 34.4,-127.79 -69.09,-121.15 -176.29,-119.19z"/>
   <path class="fil2" d="M348.14 258c-26.62,17.7 -143.55,101.31 -85.34,157.57 85.66,82.8 87.97,-112.73 85.34,-157.57z"/>
   <path class="fil2" d="M647.37 638.5c57.33,-55.03 -60.84,-107.08 -99.14,-126.88 0.84,52.83 44.31,179.5 99.14,126.88z"/>
   <path class="fil2" d="M625.26 46.64l6.46 -0.31c-9.51,32.46 -33.71,106.99 -5.56,138.07 29.93,33.03 81.98,-4.36 44.61,-73.62l-45.5 -64.14z"/>
   <path class="fil2" d="M60.83 542.42c13.68,20.14 55.18,144.84 176.29,119.19 34.4,-127.8 -69.09,-121.15 -176.29,-119.19z"/>
   <path class="fil2" d="M409.55 418.62c-17.27,17 -131.86,79.74 -85.38,194.44 131.03,11.42 106.24,-89.27 85.38,-194.44z"/>
   <path class="fil2" d="M512.66 580.42c-23.7,20.59 -119.32,93.09 -109.7,145.73 10.1,55.28 51.66,63.78 93.19,33.5 31.83,-23.21 22.7,-112.45 16.51,-179.23z"/>
   <path class="fil2" d="M604.2 734.86c-23.7,20.59 -119.32,93.09 -109.7,145.73 10.1,55.28 51.66,63.78 93.19,33.5 31.83,-23.21 22.7,-112.45 16.51,-179.23z"/>
   <path class="fil2" d="M152.28 152.34c-17.07,51.48 -50.45,199.66 43.57,177.59 77.72,-18.25 -20.33,-151.17 -43.57,-177.59z"/>
   <path class="fil2" d="M54.82 333.75c29.72,11.77 161.49,69.2 116.28,136.35 -66.54,98.82 -109.51,-91.94 -116.28,-136.35z"/>
   <path class="fil2" d="M834.19 972.39c-6.61,-1.12 -7.69,4.97 -11.97,-0.15 -142.65,-170.39 -165.88,-405.49 -157.1,-658.94 2.65,-76.7 57.64,-159.51 54.38,-184.41 8.92,4.68 0.1,0.35 9.78,4.96 0.53,28.88 -41.09,110.98 -52.05,181.54 -22.63,145.75 3.78,468.29 154.82,643.64l2.14 13.37z"/>
   <path class="fil2" d="M780.04 509.36c-16.19,10.7 -80.65,47.42 -79,80.46 1.73,34.69 26.52,43.26 54.42,28.05 21.38,-11.65 22.99,-67.09 24.58,-108.51z"/>
   <path class="fil2" d="M822.76 177.59c-19.26,2.41 -93.31,6.72 -106.5,37.06 -13.85,31.86 4.56,50.53 36.32,49.28 24.33,-0.96 50.37,-49.92 70.18,-86.34z"/>
   <path class="fil2" d="M779.71 285.37c-18.23,6.65 -89.46,27.38 -95.54,59.89 -6.39,34.14 15.73,48.24 46.4,39.93 23.5,-6.36 37.96,-59.9 49.14,-99.83z"/>
   <path class="fil2" d="M768.37 397.83c-17.2,9 -85.06,38.94 -86.8,71.97 -1.82,34.69 21.96,45.74 51.27,33.46 22.46,-9.41 29.72,-64.39 35.53,-105.44z"/>
   <path class="fil2" d="M631.78 345.62c52.38,-50.27 -55.58,-97.83 -90.57,-115.92 0.77,48.26 40.48,163.99 90.57,115.92z"/>
   <path class="fil2" d="M631.78 495.78c52.38,-50.27 -55.58,-97.83 -90.57,-115.92 0.77,48.26 40.48,163.99 90.57,115.92z"/>
   <path class="fil2" d="M798.57 3.58c-33.9,18.6 -123.22,79.77 -63.42,113.87 49.44,28.18 62.74,-88.79 63.42,-113.87z"/>
  </g>
 </g>
</svg>
